<svg xmlns="http://www.w3.org/2000/svg" width="32" height="32" fill="none" viewBox="0 0 32 32">
  <path fill="#fff" fill-rule="evenodd" d="M0 16C0 7.163 7.163 0 16 0s16 7.163 16 16-7.163 16-16 16S0 24.837 0 16Zm8 .168a7.977 7.977 0 0 1 7.976-7.976c4.403 0 7.975 3.572 8.024 7.976a7.984 7.984 0 0 1-5.431 7.584c-.392.049-.538-.196-.538-.392v-2.202c0-.734-.245-1.223-.539-1.468 1.762-.195 3.621-.831 3.621-3.914 0-.88-.342-1.615-.832-2.153l.016-.057a3.04 3.04 0 0 0-.114-2.047s-.684-.196-2.201.832a9.005 9.005 0 0 0-2.006-.245c-.686 0-1.37.05-2.007.245-1.516-1.028-2.201-.832-2.201-.832-.433 1.057-.158 1.879-.101 2.047l.003.008c-.538.587-.832 1.272-.832 2.153 0 3.083 1.86 3.768 3.62 3.963a1.71 1.71 0 0 0-.489 1.077c-.44.196-1.565.538-2.3-.685 0 0-.44-.783-1.223-.832 0 0-.782 0-.048.49 0 0 .538.244.88 1.174 0 0 .49 1.566 2.691 1.076v1.37c0 .196-.146.44-.538.392C10.3 22.675 8 19.69 8 16.168Z" clip-rule="evenodd"/>
</svg>
